<svg xmlns:xlink="http://www.w3.org/1999/xlink" xmlns="http://www.w3.org/2000/svg" width="32" height="32" viewBox="0 0 32 32"><g fill="none" fill-rule="evenodd"><g fill="#53627C" fill-rule="nonzero"><path d="M27.746 6H4.248C3.008 6 2 7.058 2 8.36v9.28C2 18.943 3.008 20 4.248 20h23.504C28.992 20 30 18.942 30 17.64V8.36C29.994 7.057 28.986 6 27.746 6zM28 17.326a.67.67 0 01-.664.674H4.664A.67.67 0 014 17.326V8.674A.67.67 0 014.664 8h22.672a.67.67 0 01.664.674v8.652z"/><path d="M26.217 15H5.777c-.43 0-.777.447-.777 1 0 .553.347 1 .778 1h20.444c.43 0 .778-.447.778-1 0-.553-.353-1-.783-1zM7.446 21.024c-.392-.108-.784.155-.882.589L6.022 24c-.098.434.14.874.532.976.449.115.8-.222.882-.588l.542-2.388c.098-.428-.14-.868-.532-.977zM13.183 22.003c-.493-.04-.922.287-.96.725l-.22 2.416c-.038.439.321.832.814.854.51.028.92-.309.959-.724l.22-2.417c.045-.432-.321-.814-.813-.854zM25.978 24l-.542-2.389c-.098-.434-.495-.691-.882-.588-.393.108-.63.548-.532.977l.542 2.389c.083.365.439.703.882.588.393-.103.63-.548.532-.977zM19.997 25.144l-.22-2.416c-.045-.433-.467-.764-.96-.725-.492.034-.858.416-.813.854l.22 2.416c.038.416.455.753.96.725.492-.028.851-.415.813-.854z"/></g><circle stroke="#53627C" fill="#D8D8D8" cx="25.5" cy="9.5" r="1"/></g></svg>