<svg xmlns:xlink="http://www.w3.org/1999/xlink" xmlns="http://www.w3.org/2000/svg" width="32" height="32" viewBox="0 0 32 32"><path d="M20.577 6h-9.1c-3.502 0-5.644 3.82-3.8 6.77A2.63 2.63 0 009.902 14H22.07c.832 0 1.612-.4 2.096-1.07 2.091-2.9.003-6.93-3.59-6.93zM23 15.656a4.585 4.585 0 002.773-1.763C28.796 9.75 25.778 4 20.584 4h-9.031c-5.042 0-8.126 5.426-5.472 9.619A4.572 4.572 0 009 15.646v2.067H7.5c-.537 0-1.045.117-1.5.333v-1.313a.992.992 0 00-1-.98c-.552 0-1 .442-1 .98v5.877c0 .54.448.98 1 .98h4.086l-2.793 2.733a.971.971 0 000 1.39c.39.383 1.024.383 1.414 0l4.207-4.123h8.672l4.207 4.123c.39.383 1.024.383 1.414 0a.971.971 0 000-1.39l-2.793-2.733H27c.552 0 1-.44 1-.98V16.733a.992.992 0 00-1-.98c-.552 0-1 .442-1 .98v1.313a3.491 3.491 0 00-1.5-.333H23v-2.057zm-1.999 6.016H25.5c.276 0 .5-.22.5-.5a1.5 1.5 0 00-1.5-1.5h-17a1.5 1.5 0 00-1.5 1.5c0 .28.224.5.5.5h14.501zM21 15.754H11v1.959h10v-1.96zm-9-5.857c0-.55-.448-1-1-1s-1 .45-1 1 .448 1 1 1 1-.45 1-1zm4-1c.552 0 1 .45 1 1s-.448 1-1 1-1-.45-1-1 .448-1 1-1zm6 1c0-.55-.448-1-1-1s-1 .45-1 1 .448 1 1 1 1-.45 1-1z" fill="#53627C" fill-rule="evenodd"/></svg>