<svg xmlns:xlink="http://www.w3.org/1999/xlink" xmlns="http://www.w3.org/2000/svg" width="32" height="32" viewBox="0 0 32 32"><g transform="translate(2 5)" fill="none" fill-rule="evenodd"><rect stroke="#53627C" stroke-width="2" x="6" width="8" height="22" rx="3"/><rect fill="#53627C" x="17" y="14" width="7" height="2" rx="1"/><rect fill="#53627C" x="17" y="10" width="7" height="2" rx="1"/><rect fill="#53627C" x="17" y="6" width="7" height="2" rx="1"/><path d="M3 2.919c0-.678-.724-1.175-1.333-.777C.658 2.802 0 3.868 0 5.078v10.844c0 1.21.658 2.277 1.667 2.936.609.398 1.333-.099 1.333-.777 0-.37-.239-.696-.508-.976A1.695 1.695 0 012 15.922V5.078c0-.451.185-.867.492-1.183.269-.28.508-.606.508-.976zM17 19.1c0-.495.41-.9.917-.9h6.416c1.013 0 1.834-.81 1.834-1.8V5.6c0-.99-.82-1.8-1.834-1.8h-6.416A.91.91 0 0117 2.9c0-.495.41-.9.917-.9h6.416C26.358 2 28 3.611 28 5.6v10.8c0 1.989-1.642 3.6-3.667 3.6h-6.416a.91.91 0 01-.917-.9z" fill="#53627C"/></g></svg>