<svg xmlns="http://www.w3.org/2000/svg" version="1.1" xmlns:xlink="http://www.w3.org/1999/xlink" xmlns:svgjs="http://svgjs.com/svgjs" width="512" height="512" x="0" y="0" viewBox="0 0 512 512" style="enable-background:new 0 0 512 512" xml:space="preserve" class=""><g><path d="M497 350.633h-11.168l-11.684-20.403-.054-.093c-9.04-15.528-23.567-40.7-31.887-55.203-6.973-11.97-17.516-18.832-28.937-18.832h-.024c-11.418.011-21.953 6.882-28.898 18.855l-.094.16c-.207.367-.414.738-.629 1.113l-83.746-145.062c-8.527-14.777-21.29-23.262-35.012-23.277h-.039c-13.723 0-26.508 8.472-35.09 23.277 0 0-27.324 47.355-44.875 77.758-2.73-4.723-4.808-8.324-4.863-8.414-8.52-14.785-21.285-23.274-35.016-23.285h-.027c-13.73 0-26.512 8.48-35.07 23.277l-86.63 150.129H15c-8.285 0-15 6.719-15 15.004 0 8.281 6.715 15 15 15h482c8.285 0 15-6.719 15-15 0-8.285-6.715-15.004-15-15.004zM135.863 215.512c3.535-6.114 7.11-8.285 9.094-8.285h.004c1.976.003 5.535 2.168 9.055 8.273.578 1.004 14.21 24.617 17.457 30.156a15.598 15.598 0 0 0 13.414 7.688h.039a15.607 15.607 0 0 0 13.418-7.766c10.21-17.66 57.37-99.398 57.363-99.39 3.55-6.125 7.133-8.297 9.125-8.297h.004c1.98.004 5.539 2.168 9.059 8.273l96.3 166.805a15.589 15.589 0 0 0 13.461 7.77h.008c5.54 0 10.7-2.985 13.469-7.79l3.43-5.949c3.59-6.223 6.98-12.105 9.773-17.059 1.285-2.195 2.367-3.199 2.941-3.625.582.426 1.676 1.434 2.957 3.633 8.286 14.442 22.836 39.653 31.91 55.235l3.118 5.449H57.882zM124.723 121.742c33.566 0 60.87-27.308 60.87-60.87C185.594 27.304 158.29 0 124.724 0 91.16 0 63.852 27.305 63.852 60.871c0 33.563 27.308 60.871 60.87 60.871zm0-91.742c17.023 0 30.87 13.848 30.87 30.871 0 17.02-13.847 30.867-30.87 30.867-17.02 0-30.868-13.847-30.868-30.867C93.855 43.848 107.703 30 124.723 30zm0 0" fill="#475770" data-original="#000000" opacity="1"></path></g></svg>