<svg xmlns:xlink="http://www.w3.org/1999/xlink" xmlns="http://www.w3.org/2000/svg" width="32" height="32" viewBox="0 0 32 32"><g transform="translate(3 7)" stroke="#53627C" stroke-width="2" fill="none" fill-rule="evenodd"><circle cx="13" cy="9" r="4"/><path d="M7 15a7.924 7.924 0 01-1.48-2.524A8.72 8.72 0 015 9.5a8.72 8.72 0 01.52-2.976A7.924 7.924 0 017 4M4 18a12.713 12.713 0 01-2.96-4.129A11.982 11.982 0 010 9c0-1.671.354-3.327 1.04-4.871A12.713 12.713 0 014 0M19 4a7.93 7.93 0 011.48 2.523c.343.944.52 1.955.52 2.977 0 1.02-.177 2.033-.52 2.976A7.924 7.924 0 0119 15M22 0a12.713 12.713 0 012.96 4.129C25.646 5.673 26 7.329 26 9c0 1.671-.354 3.327-1.04 4.871A12.713 12.713 0 0122 18" stroke-linecap="round" stroke-linejoin="round"/></g></svg>