<svg xmlns:xlink="http://www.w3.org/1999/xlink" xmlns="http://www.w3.org/2000/svg" width="32" height="32" viewBox="0 0 32 32"><g fill="none" fill-rule="evenodd"><path d="M4 7c0-1.66 1.343-3 3-3h6c1.657 0 3 1.34 3 3v9H7c-1.657 0-3-1.34-3-3V7zM16 7c0-1.66 1.343-3 3-3h6c1.657 0 3 1.34 3 3v6c0 1.66-1.343 3-3 3h-9V7z" stroke="#53627C" stroke-width="2"/><path d="M19 8c0-.55.448-1 1-1h4c.552 0 1 .45 1 1s-.448 1-1 1h-4c-.552 0-1-.45-1-1z" fill="#53627C"/><path d="M28 25c0 1.66-1.343 3-3 3h-6c-1.657 0-3-1.34-3-3v-9h9c1.657 0 3 1.34 3 3v6zM16 25c0 1.66-1.343 3-3 3H7c-1.657 0-3-1.34-3-3v-6c0-1.66 1.343-3 3-3h9v9z" stroke="#53627C" stroke-width="2"/></g></svg>