<svg width="172" height="56" viewBox="0 0 172 56" fill="none" xmlns="http://www.w3.org/2000/svg">
<g clip-path="url(#clip0_0:1828)">
<path d="M60.6714 27.3606C62.6704 27.3606 63.7222 26.1 63.7222 24.491C63.7341 24.1068 63.6664 23.7242 63.5234 23.3674C63.3803 23.0106 63.1649 22.6872 62.8908 22.4177C62.6167 22.1481 62.2898 21.9383 61.9306 21.8012C61.5714 21.6642 61.1878 21.603 60.8038 21.6214H57.1819V27.3606H60.6714ZM60.8038 15.7847C63.9938 15.7847 66.3758 16.6414 67.8873 18.313C69.462 20.0131 70.3029 22.2655 70.2276 24.5816C70.2633 25.7159 70.0687 26.8456 69.6557 27.9027C69.2427 28.9597 68.6198 29.9221 67.8246 30.7318C66.2296 32.3337 63.7222 33.1208 60.365 33.1208H57.1819V41.0471H50.8437V15.7847H60.8038Z" fill="#111B3C"/>
<path d="M72.1917 41.0262V23.1329H77.6663V25.3408C78.3592 24.1877 79.4491 23.3271 80.7316 22.9206C82.014 22.514 83.4007 22.5895 84.6314 23.1329L84.1786 28.5796C83.4185 28.3075 82.6178 28.1662 81.8105 28.1617C79.1916 28.1617 77.8613 29.8751 77.8613 33.3089V41.0262H72.1917Z" fill="#111B3C"/>
<path d="M97.0571 34.681C97.4307 34.2983 97.7242 33.8449 97.9203 33.3474C98.1165 32.8498 98.2113 32.3182 98.1994 31.7835C98.2021 31.2592 98.101 30.7396 97.9019 30.2546C97.7027 29.7695 97.4095 29.3288 97.0391 28.9577C96.6686 28.5867 96.2284 28.2927 95.7438 28.0927C95.2591 27.8927 94.7396 27.7906 94.2153 27.7925C93.6936 27.7817 93.1756 27.8817 92.6954 28.0858C92.2151 28.2899 91.7836 28.5935 91.4293 28.9765C91.0577 29.3379 90.764 29.7715 90.5663 30.2506C90.3687 30.7298 90.2712 31.2443 90.28 31.7626C90.2678 32.2979 90.3632 32.8302 90.5607 33.3279C90.7581 33.8257 91.0535 34.2787 91.4293 34.6601C91.7904 35.032 92.2239 35.3259 92.7031 35.5236C93.1823 35.7213 93.697 35.8185 94.2153 35.8093C94.7423 35.8212 95.2661 35.7254 95.7548 35.5278C96.2434 35.3302 96.6866 35.0349 97.0571 34.6601V34.681ZM87.306 38.3934C85.5998 36.613 84.6472 34.2424 84.6472 31.7765C84.6472 29.3106 85.5998 26.94 87.306 25.1597C89.1869 23.4185 91.6556 22.4512 94.2188 22.4512C96.782 22.4512 99.2507 23.4185 101.132 25.1597C102.859 26.9291 103.826 29.3038 103.826 31.7765C103.826 34.2492 102.859 36.6239 101.132 38.3934C99.2425 40.1181 96.7769 41.0744 94.2188 41.0744C91.6607 41.0744 89.1951 40.1181 87.306 38.3934Z" fill="#111B3C"/>
<path d="M115.703 27.7228C115.167 27.714 114.634 27.8143 114.138 28.0176C113.642 28.2208 113.192 28.5228 112.816 28.9052C112.44 29.2876 112.146 29.7424 111.952 30.2419C111.757 30.7415 111.666 31.2755 111.684 31.8113C111.675 32.884 112.079 33.9189 112.812 34.7019C113.183 35.0932 113.632 35.4016 114.13 35.6069C114.628 35.8122 115.164 35.9097 115.703 35.8929C116.238 35.9129 116.77 35.8168 117.265 35.6112C117.759 35.4056 118.202 35.0954 118.565 34.7019C119.3 33.9201 119.702 32.8838 119.687 31.8113C119.709 31.2774 119.621 30.7447 119.43 30.2456C119.239 29.7466 118.948 29.2919 118.575 28.9091C118.202 28.5264 117.755 28.2238 117.261 28.0199C116.767 27.8159 116.237 27.7148 115.703 27.7228ZM123.03 25.1457C124.673 26.9422 125.55 29.3086 125.475 31.7417C125.526 34.1947 124.642 36.5753 123.002 38.4003C122.232 39.2727 121.281 39.9664 120.215 40.4332C119.149 40.9 117.994 41.1285 116.831 41.1028C114.961 41.1427 113.149 40.4504 111.781 39.1735V47.0092H106.091V22.896H111.663V24.5398C112.328 23.8613 113.124 23.326 114.003 22.9667C114.882 22.6073 115.826 22.4316 116.775 22.4503C117.949 22.4182 119.115 22.6436 120.192 23.1104C121.269 23.5773 122.23 24.2744 123.009 25.1527" fill="#111B3C"/>
<path d="M137.051 27.7229C136.515 27.7141 135.982 27.8144 135.486 28.0177C134.99 28.2209 134.54 28.5229 134.164 28.9053C133.788 29.2877 133.494 29.7425 133.3 30.242C133.105 30.7416 133.014 31.2756 133.032 31.8114C133.017 32.8839 133.419 33.9202 134.153 34.702C134.524 35.0942 134.975 35.4031 135.474 35.6084C135.974 35.8138 136.511 35.9107 137.051 35.893C137.584 35.9129 138.116 35.8167 138.609 35.6111C139.102 35.4055 139.545 35.0953 139.906 34.702C140.639 33.919 141.043 32.8841 141.035 31.8114C141.057 31.2775 140.969 30.7448 140.778 30.2457C140.587 29.7467 140.296 29.292 139.923 28.9092C139.55 28.5265 139.103 28.2239 138.609 28.02C138.115 27.816 137.585 27.7149 137.051 27.7229ZM144.378 25.1458C146.016 26.9445 146.89 29.31 146.816 31.7418C146.867 34.1948 145.983 36.5754 144.343 38.4004C143.574 39.2735 142.623 39.9678 141.557 40.4346C140.491 40.9014 139.335 41.1295 138.172 41.1029C136.302 41.1421 134.49 40.4499 133.122 39.1736V47.0093H127.439V22.8961H133.011V24.5399C133.675 23.8623 134.47 23.3275 135.348 22.9681C136.226 22.6088 137.168 22.4326 138.116 22.4504C139.295 22.4146 140.468 22.6381 141.551 23.1051C142.634 23.572 143.601 24.2711 144.385 25.1528" fill="#111B3C"/>
<path d="M154.951 41.0262H149.219V22.4852H154.951V41.0262ZM148.752 18.2434C148.755 17.5944 148.95 16.9607 149.312 16.4222C149.674 15.8837 150.188 15.4645 150.788 15.2174C151.388 14.9703 152.048 14.9064 152.684 15.0337C153.321 15.161 153.905 15.4738 154.364 15.9328C154.823 16.3917 155.136 16.9762 155.263 17.6126C155.39 18.249 155.327 18.9089 155.079 19.509C154.832 20.1092 154.413 20.6227 153.875 20.985C153.336 21.3473 152.702 21.5421 152.053 21.5449C151.617 21.5554 151.183 21.4772 150.778 21.315C150.372 21.1528 150.004 20.91 149.696 20.6013C149.387 20.2926 149.144 19.9244 148.982 19.5191C148.82 19.1138 148.742 18.6799 148.752 18.2434Z" fill="#111B3C"/>
<path d="M171.5 39.5636C169.764 40.5512 167.793 41.0517 165.796 41.0123C161.366 41.0123 159.153 38.5606 159.158 33.6572V27.2144H156.414V22.5061H159.2V19.6364L164.862 16.4325V22.5061H170.469V27.2144H164.862V32.9815C164.862 34.883 165.608 35.8163 167.133 35.8163C168.112 35.776 169.068 35.5013 169.919 35.0154L171.5 39.5636Z" fill="#111B3C"/>
<path d="M6.44819 46.8834H0.5V28.2936L15.6421 17.8459L30.4847 28.2936V46.9043H9.79144L15.5516 40.9701H24.4808V31.3722L15.5934 25.1872L6.44819 31.3722V46.8834Z" fill="#0ACC86"/>
<path d="M32.9574 44.1744L32.8947 27.096L18.7764 17.4493L25.6858 16.7528L37.4011 24.7487L37.5334 38.8113L32.9574 44.1744Z" fill="#0ACC86"/>
<path d="M39.2956 36.7148V23.5229L28.7574 16.4533L34.5454 15.7708L43.3075 21.5657L43.2726 31.679L39.2956 36.7148Z" fill="#0ACC86"/>
</g>
<defs>
<clipPath id="clip0_0:1828">
<rect width="171" height="32.0046" fill="white" transform="translate(0.5 14.9977)"/>
</clipPath>
</defs>
</svg>
